<svg xmlns="http://www.w3.org/2000/svg" viewBox="0 0 27 41"><ellipse cx="13.5" cy="34.8" rx="10.5" ry="5.25" opacity="0.04" style="isolation:isolate"/><ellipse cx="13.5" cy="34.8" rx="10.5" ry="5.25" opacity="0.04" style="isolation:isolate"/><ellipse cx="13.5" cy="34.8" rx="9.5" ry="4.77" opacity="0.04" style="isolation:isolate"/><ellipse cx="13.5" cy="34.8" rx="8.5" ry="4.3" opacity="0.04" style="isolation:isolate"/><ellipse cx="13.5" cy="34.8" rx="7.5" ry="3.82" opacity="0.04" style="isolation:isolate"/><ellipse cx="13.5" cy="34.8" rx="6.5" ry="3.34" opacity="0.04" style="isolation:isolate"/><ellipse cx="13.5" cy="34.8" rx="5.5" ry="2.86" opacity="0.04" style="isolation:isolate"/><ellipse cx="13.5" cy="34.8" rx="4.5" ry="2.39" opacity="0.04" style="isolation:isolate"/><path d="M27,13.5c0,5.57-6.75,13.5-12.25,21a1.42,1.42,0,0,1-2.5,0C6.75,27,0,19.22,0,13.5a13.5,13.5,0,0,1,27,0Z" fill="#3fb1ce"/><g opacity="0.25"><path d="M13.5,0A13.49,13.49,0,0,0,0,13.5c0,5.72,6.75,13.5,12.25,21a1.41,1.41,0,0,0,2.5,0C20.25,27,27,19.07,27,13.5A13.49,13.49,0,0,0,13.5,0Zm0,1A12.48,12.48,0,0,1,26,13.5c0,2.4-1.5,5.68-3.78,9.24s-5.51,7.4-8.28,11.17a5.75,5.75,0,0,1-.44.53,5.75,5.75,0,0,1-.44-.53c-2.78-3.78-5.65-7.6-8-11.14S1,16,1,13.5A12.48,12.48,0,0,1,13.5,1Z"/></g><circle cx="13.5" cy="13.5" r="5.5" opacity="0.25" style="isolation:isolate"/><circle cx="13.5" cy="13.5" r="5.5" fill="#fff"/></svg>
